<svg width="30" height="31" viewBox="0 0 30 31" fill="none" xmlns="http://www.w3.org/2000/svg">
<g id="material-symbols:check-circle-rounded">
<path id="Vector" d="M13.4855 17.7274L10.8448 15.0867C10.6222 14.8641 10.3491 14.7528 10.0253 14.7528C9.70153 14.7528 9.41824 14.8742 9.17541 15.1171C8.95282 15.3396 8.84153 15.6229 8.84153 15.9669C8.84153 16.3109 8.95282 16.5942 9.17541 16.8168L12.6357 20.2771C12.8582 20.4997 13.1415 20.611 13.4855 20.611C13.8295 20.611 14.1128 20.4997 14.3354 20.2771L21.2256 13.3869C21.4482 13.1643 21.5595 12.8912 21.5595 12.5674C21.5595 12.2436 21.438 11.9603 21.1952 11.7175C20.9726 11.4949 20.6893 11.3836 20.3453 11.3836C20.0013 11.3836 19.718 11.4949 19.4955 11.7175L13.4855 17.7274ZM15.1853 27.6832C13.5058 27.6832 11.9274 27.3643 10.4502 26.7265C8.97306 26.0895 7.68811 25.2246 6.5954 24.1319C5.50269 23.0392 4.63783 21.7543 4.00082 20.2771C3.363 18.7999 3.04409 17.2215 3.04409 15.542C3.04409 13.8625 3.363 12.2841 4.00082 10.8069C4.63783 9.32974 5.50269 8.04479 6.5954 6.95208C7.68811 5.85937 8.97306 4.99411 10.4502 4.35629C11.9274 3.71928 13.5058 3.40077 15.1853 3.40077C16.8649 3.40077 18.4432 3.71928 19.9204 4.35629C21.3976 4.99411 22.6825 5.85937 23.7752 6.95208C24.8679 8.04479 25.7328 9.32974 26.3698 10.8069C27.0076 12.2841 27.3265 13.8625 27.3265 15.542C27.3265 17.2215 27.0076 18.7999 26.3698 20.2771C25.7328 21.7543 24.8679 23.0392 23.7752 24.1319C22.6825 25.2246 21.3976 26.0895 19.9204 26.7265C18.4432 27.3643 16.8649 27.6832 15.1853 27.6832Z" fill="#2D2D1F"/>
</g>
</svg>
